<!-- Generated by IcoMoon.io -->
<svg version="1.1" xmlns="http://www.w3.org/2000/svg" width="32" height="32" viewBox="0 0 32 32">
<path d="M11.52 2.005c-0.373 0.047-0.759 0.198-1.131 0.446-0.446 0.297-0.625 0.593-0.627 1.026 0 0.215 0.043 0.361 0.147 0.497 0.218 0.284 0.644 0.228 0.687-0.087 0.011-0.079 0.011-0.079-0.073-0.085-0.169-0.011-0.265-0.149-0.279-0.407-0.019-0.32 0.079-0.572 0.301-0.785 0.22-0.211 0.51-0.333 0.804-0.335 0.25 0 0.365 0.049 0.544 0.23 0.175 0.177 0.299 0.399 0.386 0.685 0.066 0.226 0.081 0.602 0.032 0.8-0.070 0.284-0.22 0.503-0.437 0.644-0.209 0.134-0.211 0.132-0.267-0.213-0.092-0.555-0.228-1.167-0.367-1.649l-0.066-0.226-0.134 0.090c-0.075 0.051-0.181 0.109-0.237 0.13-0.058 0.019-0.107 0.038-0.111 0.041-0.002 0.002 0.023 0.083 0.058 0.177 0.162 0.439 0.292 1.137 0.316 1.683 0.013 0.299 0.009 0.335-0.034 0.452l-0.045 0.126 0.043 0.073c0.038 0.066 0.041 0.090 0.021 0.237-0.053 0.429-0.175 0.674-0.373 0.764-0.047 0.021-0.107 0.041-0.132 0.041-0.028 0-0.049 0.004-0.049 0.011 0 0.045 0.141 0.277 0.222 0.367 0.169 0.188 0.386 0.247 0.567 0.156 0.284-0.145 0.503-0.962 0.446-1.647-0.013-0.13-0.017-0.239-0.013-0.245 0.019-0.017 0.203 0.081 0.29 0.156 0.047 0.043 0.179 0.192 0.292 0.333 0.363 0.45 0.538 0.589 0.772 0.608 0.164 0.013 0.235-0.034 0.322-0.211 0.087-0.183 0.137-0.518 0.096-0.672l-0.013-0.045-0.075 0.051c-0.096 0.064-0.186 0.081-0.375 0.066-0.141-0.009-0.183-0.026-0.484-0.181-0.181-0.094-0.373-0.181-0.427-0.196s-0.111-0.030-0.128-0.036c-0.019-0.004 0.013-0.034 0.083-0.070 0.636-0.348 1.033-1.124 0.89-1.737-0.077-0.32-0.32-0.663-0.612-0.858-0.262-0.173-0.531-0.239-0.83-0.201z"></path>
<path d="M20.789 2.325c-0.706 0.186-1.316 0.672-1.737 1.387-0.141 0.239-0.294 0.439-0.38 0.493-0.055 0.034-0.070 0.058-0.070 0.113 0 0.038-0.028 0.145-0.062 0.239-0.083 0.23-0.117 0.45-0.1 0.653 0.036 0.442 0.247 0.764 0.619 0.947 0.602 0.294 1.399 0.090 2.052-0.531 0.102-0.096 0.239-0.205 0.303-0.239 0.105-0.058 0.122-0.075 0.143-0.16 0.013-0.053 0.079-0.177 0.147-0.277 0.314-0.463 0.482-0.977 0.482-1.47-0.002-0.433-0.098-0.717-0.309-0.917-0.262-0.25-0.691-0.341-1.088-0.237zM21.342 2.633c0.215 0.090 0.288 0.352 0.224 0.817-0.047 0.348-0.209 0.717-0.521 1.193-0.149 0.23-0.245 0.329-0.346 0.361-0.041 0.011-0.049 0.030-0.049 0.1 0 0.081-0.015 0.1-0.196 0.288-0.51 0.521-0.855 0.691-1.137 0.563-0.179-0.081-0.284-0.301-0.258-0.54 0.017-0.177 0.105-0.422 0.207-0.585 0.073-0.115 0.107-0.147 0.194-0.186 0.077-0.032 0.107-0.060 0.115-0.1 0.032-0.156 0.209-0.331 0.467-0.459 0.254-0.126 0.467-0.141 0.621-0.038 0.047 0.030 0.051 0.028 0.064-0.023 0.006-0.032 0.009-0.115 0.004-0.183-0.013-0.164-0.090-0.279-0.252-0.371-0.115-0.064-0.124-0.066-0.401-0.066-0.154 0-0.282-0.002-0.282-0.004s0.1-0.092 0.224-0.201c0.361-0.318 0.574-0.448 0.89-0.54 0.203-0.062 0.329-0.068 0.431-0.026z"></path>
<path d="M3.996 7.904c-0.179 0.092-0.254 0.237-0.237 0.465 0.019 0.237 0.113 0.425 0.593 1.18 0.354 0.555 0.503 0.819 0.555 0.988 0.023 0.075 0.038 0.141 0.032 0.147-0.004 0.004-0.243-0.177-0.527-0.405-0.286-0.228-0.595-0.471-0.689-0.544-0.188-0.141-0.555-0.39-0.574-0.39-0.006 0-0.013 0.013-0.013 0.030 0 0.055-0.085 0.233-0.205 0.418-0.437 0.689-0.435 1.327 0.004 1.764 0.158 0.16 0.286 0.222 0.478 0.237 0.211 0.015 0.341-0.062 0.416-0.239 0.041-0.096 0.030-0.183-0.032-0.284l-0.043-0.070-0.079 0.055c-0.162 0.111-0.378 0.026-0.572-0.222-0.179-0.226-0.258-0.538-0.205-0.796 0.045-0.218 0.041-0.218 0.356-0.053 0.514 0.269 1.003 0.621 1.453 1.045 0.23 0.22 0.335 0.356 0.371 0.486 0.013 0.049 0.034 0.081 0.053 0.081 0.162 0 0.465 0.474 0.491 0.77 0.013 0.124 0.006 0.147-0.053 0.26l-0.066 0.124 0.094 0.041c0.439 0.196 0.858 0.032 0.853-0.331-0.006-0.324-0.326-0.905-0.721-1.301-0.126-0.128-0.222-0.243-0.237-0.288-0.021-0.064-0.036-0.077-0.117-0.090-0.085-0.015-0.256-0.111-0.256-0.145 0-0.026 0.107-0.064 0.183-0.064 0.081 0 0.201 0.051 0.201 0.087 0 0.013 0.013 0.013 0.041-0.002 0.066-0.034 0.171-0.026 0.354 0.032 0.695 0.218 1.355 0.119 1.538-0.228 0.092-0.175-0.036-0.503-0.305-0.783l-0.096-0.098-0.049 0.137c-0.066 0.181-0.147 0.29-0.305 0.412-0.177 0.134-0.333 0.19-0.574 0.205-0.183 0.009-0.203 0.006-0.29-0.047l-0.096-0.055-0.094 0.043c-0.060 0.028-0.139 0.043-0.23 0.043-0.098 0-0.166 0.013-0.224 0.043-0.047 0.023-0.087 0.043-0.090 0.043-0.004 0-0.006-0.028-0.006-0.062 0-0.111-0.1-0.41-0.309-0.932-0.275-0.681-0.318-0.849-0.265-1.043 0.030-0.109 0.164-0.245 0.241-0.245 0.049 0 0.053-0.004 0.034-0.043-0.043-0.081-0.265-0.301-0.354-0.354-0.141-0.083-0.29-0.090-0.429-0.019z"></path>
<path d="M27.733 8.832c-0.166 0.036-0.316 0.126-0.51 0.311-0.226 0.213-0.348 0.388-0.555 0.787-0.177 0.339-0.194 0.363-0.29 0.395-0.060 0.019-0.073 0.036-0.085 0.107-0.041 0.235-0.309 0.405-0.638 0.405-0.213 0-0.32-0.058-0.401-0.211-0.098-0.186-0.075-0.397 0.062-0.557 0.156-0.181 0.525-0.286 0.719-0.205 0.047 0.019 0.087 0.032 0.090 0.028 0.004-0.004-0.002-0.041-0.015-0.083-0.034-0.13-0.188-0.335-0.322-0.433-0.333-0.245-0.698-0.207-1.011 0.105-0.205 0.205-0.305 0.478-0.277 0.751 0.066 0.64 0.608 1.197 1.254 1.289 0.288 0.041 0.57-0.045 0.802-0.243 0.064-0.053 0.132-0.098 0.154-0.098 0.030 0 0.047-0.023 0.064-0.083 0.011-0.045 0.068-0.171 0.126-0.282s0.169-0.358 0.243-0.555c0.077-0.194 0.173-0.42 0.213-0.503 0.107-0.209 0.262-0.373 0.437-0.459 0.132-0.066 0.156-0.070 0.367-0.070 0.203 0 0.237 0.006 0.358 0.062 0.241 0.111 0.378 0.329 0.326 0.516-0.028 0.102-0.147 0.224-0.279 0.284-0.198 0.090-0.474 0.038-0.58-0.107-0.026-0.034-0.053-0.062-0.064-0.062-0.032 0-0.124 0.213-0.124 0.292 0 0.119 0.081 0.226 0.228 0.297 0.105 0.053 0.145 0.060 0.303 0.058 0.207 0 0.314-0.032 0.467-0.139 0.141-0.096 0.213-0.179 0.279-0.316 0.045-0.096 0.055-0.147 0.055-0.288 0-0.151-0.009-0.188-0.073-0.318-0.087-0.179-0.279-0.38-0.471-0.491-0.267-0.158-0.619-0.233-0.853-0.183z"></path>
<path d="M17.007 12.009c-0.19 0.049-0.318 0.311-0.461 0.947-0.013 0.053-0.019 0.058-0.094 0.045-0.087-0.013-0.228 0.017-0.288 0.060-0.049 0.036-0.493 1.412-0.476 1.476 0.006 0.030 0.045 0.064 0.098 0.087 0.049 0.021 0.092 0.047 0.096 0.055 0.006 0.009-0.028 0.070-0.073 0.141-0.047 0.068-0.092 0.154-0.1 0.188-0.006 0.036-0.030 0.081-0.047 0.102-0.090 0.1-1.346 0.772-2.298 1.227-0.811 0.386-0.681 0.341-2.539 0.877-0.412 0.119-0.785 0.215-0.832 0.215-0.1 0-0.226 0.058-0.256 0.117-0.011 0.023-0.047 0.077-0.077 0.117-0.087 0.115-0.145 0.243-0.19 0.42-0.028 0.105-0.064 0.183-0.105 0.23-0.062 0.070-0.083 0.145-0.13 0.427-0.041 0.256 0.036 0.471 0.218 0.599 0.452 0.324 1.357 0.529 2.833 0.64 0.608 0.045 2.114 0.064 2.607 0.032 0.412-0.026 0.644-0.032 2.236-0.066 0.546-0.011 1.122-0.030 1.28-0.043 0.158-0.011 0.514-0.026 0.789-0.030 1.619-0.030 1.954-0.053 2.605-0.183 0.416-0.085 0.832-0.237 0.979-0.356 0.107-0.090 0.075-0.489-0.077-0.928-0.043-0.119-0.090-0.301-0.105-0.401-0.028-0.19-0.068-0.294-0.149-0.384-0.041-0.047-0.051-0.1-0.083-0.416-0.124-1.252-0.141-1.385-0.188-1.425-0.028-0.023-0.077-0.134-0.122-0.277-0.075-0.224-0.077-0.252-0.070-0.463 0.015-0.384 0.013-0.412-0.034-0.521-0.038-0.085-0.043-0.117-0.026-0.181 0.011-0.043 0.021-0.102 0.021-0.132 0-0.096-0.062-0.269-0.137-0.378-0.041-0.058-0.087-0.139-0.105-0.177-0.017-0.041-0.070-0.109-0.117-0.156l-0.085-0.081-1.481-0.393c-0.813-0.215-1.515-0.401-1.557-0.414-0.073-0.021-0.081-0.030-0.081-0.092 0-0.079-0.098-0.258-0.183-0.337-0.034-0.032-0.096-0.068-0.137-0.081-0.209-0.066-0.919-0.126-1.062-0.090zM17.707 12.141c0.367 0.049 0.41 0.068 0.516 0.23 0.049 0.079 0.079 0.173 0.055 0.173-0.004 0-0.073-0.013-0.156-0.030-0.233-0.047-0.461-0.062-0.557-0.036-0.194 0.053-0.378 0.26-0.48 0.544l-0.049 0.134-0.096-0.017c-0.209-0.038-0.211 0.019 0.013-0.535 0.109-0.273 0.198-0.501 0.198-0.506 0-0.011 0.363 0.017 0.555 0.043zM18.485 13.035c0.305 0.107 0.612 0.213 0.683 0.233 0.070 0.021 0.128 0.047 0.128 0.058-0.002 0.058-0.060 0.309-0.075 0.318-0.011 0.006-0.137-0.023-0.279-0.064-0.273-0.077-1.043-0.258-1.367-0.322-0.205-0.038-0.209-0.045-0.156-0.175 0.073-0.171 0.228-0.269 0.405-0.252 0.060 0.004 0.356 0.098 0.661 0.205zM16.751 13.216c1.566 0.271 2.797 0.599 2.955 0.787 0.051 0.062 0.053 0.075 0.041 0.237-0.030 0.384-0.183 0.86-0.32 0.996-0.096 0.094-0.134 0.092-0.553-0.034-1.297-0.39-2.449-0.67-2.908-0.708l-0.173-0.015 0.062-0.194c0.192-0.595 0.361-1.109 0.371-1.124 0.017-0.030 0.062-0.023 0.525 0.055zM19.97 13.453c0.019 0.006 0.043 0.032 0.051 0.058s0.021 0.331 0.032 0.676c0.017 0.676 0.036 0.794 0.141 0.932 0.098 0.13 0.162 0.151 0.512 0.177 0.175 0.011 0.512 0.021 0.749 0.021h0.429l0.023 0.068c0.013 0.036 0.021 0.068 0.017 0.073-0.002 0.002-0.548 0.141-1.214 0.307l-1.207 0.301-0.256-0.128 0.041-0.177c0.021-0.098 0.047-0.213 0.053-0.258 0.011-0.064 0.032-0.094 0.094-0.132 0.186-0.117 0.35-0.533 0.41-1.028 0.030-0.254 0.015-0.348-0.068-0.431l-0.064-0.062 0.047-0.218 0.047-0.215 0.064 0.013c0.036 0.009 0.081 0.019 0.1 0.023zM16.469 14.679c0.239 0.047 0.343 0.083 0.23 0.083-0.030 0-0.109 0.028-0.175 0.062l-0.119 0.064-0.175-0.083c-0.098-0.045-0.169-0.083-0.158-0.083 0.011-0.002-0.002-0.028-0.032-0.058l-0.051-0.058 0.117 0.013c0.064 0.009 0.228 0.034 0.363 0.060zM17.44 14.91c0.717 0.186 1.376 0.378 1.376 0.399 0 0.006-0.019 0.090-0.045 0.19l-0.045 0.179-0.877-0.437c-0.484-0.241-0.883-0.444-0.89-0.45s0.009-0.006 0.032 0.002c0.023 0.006 0.226 0.060 0.448 0.117zM16.288 14.955c0.386 0.186 0.523 0.307 0.523 0.467 0 0.090-0.021 0.13-0.077 0.154-0.070 0.026-0.122 0.002-0.309-0.139-0.181-0.139-0.416-0.258-0.546-0.279-0.085-0.013-0.092-0.017-0.079-0.070 0.032-0.134 0.143-0.286 0.196-0.267 0.019 0.006 0.151 0.066 0.292 0.134zM17.766 15.319c0.501 0.247 0.915 0.452 0.919 0.457 0.013 0.013-0.109 0.489-0.13 0.512-0.015 0.017-4.224 1.079-4.235 1.069-0.017-0.015-0.096-0.378-0.113-0.518-0.023-0.183 0.004-0.399 0.049-0.384 0.015 0.004 0.032 0.073 0.041 0.151 0.021 0.22 0.132 0.363 0.279 0.363 0.041-0.002 0.311-0.113 0.698-0.29 1.131-0.518 1.12-0.514 1.295-0.514 0.124 0 0.175 0.011 0.277 0.060 0.075 0.038 0.154 0.060 0.203 0.060 0.222-0.011 0.659-0.363 0.715-0.576 0.017-0.075-0.032-0.171-0.13-0.25-0.186-0.151-0.89-0.495-0.96-0.469-0.043 0.017-0.141-0.006-0.141-0.034 0-0.034 0.132-0.081 0.23-0.083 0.079-0.002 0.226 0.064 1.003 0.448zM17.163 15.3c0.25 0.126 0.471 0.277 0.491 0.337 0.041 0.128-0.311 0.461-0.57 0.535-0.045 0.013-0.090 0.004-0.175-0.036-0.164-0.075-0.333-0.102-0.467-0.073-0.115 0.023-0.439 0.162-1.327 0.57-0.572 0.262-0.585 0.265-0.659 0.151-0.038-0.058-0.070-0.23-0.043-0.23 0.011 0 0.043 0.019 0.073 0.043s0.077 0.043 0.107 0.043c0.119 0 0.256-0.139 0.256-0.26 0-0.060-0.015-0.079-0.090-0.137l-0.058-0.045 0.102-0.055c0.060-0.034 0.109-0.049 0.122-0.036 0.011 0.011 0.077 0.053 0.145 0.094 0.245 0.147 0.439 0.085 0.439-0.137 0-0.092-0.009-0.109-0.079-0.166l-0.081-0.064 0.075-0.036 0.075-0.034 0.22 0.109c0.169 0.085 0.233 0.107 0.279 0.096 0.068-0.015 0.132-0.075 0.181-0.169 0.043-0.085 0.013-0.139-0.117-0.211-0.058-0.034-0.105-0.066-0.105-0.075s0.049-0.041 0.107-0.070l0.107-0.058 0.122 0.085c0.068 0.049 0.154 0.113 0.19 0.145 0.134 0.117 0.333 0.094 0.405-0.045 0.049-0.098 0.030-0.275-0.045-0.371l-0.053-0.073 0.079 0.034c0.045 0.017 0.177 0.081 0.294 0.139zM15.787 15.253c0.023 0.002 0.017 0.013-0.019 0.043-0.055 0.049-0.109 0.055-0.147 0.017-0.032-0.032 0.034-0.085 0.092-0.070 0.023 0.006 0.058 0.011 0.075 0.011zM16.019 15.315c0.023 0.015 0.002 0.034-0.081 0.075-0.141 0.073-0.188 0.049-0.064-0.032 0.109-0.068 0.105-0.068 0.145-0.043zM15.789 15.543c0.162 0.102 0.297 0.194 0.297 0.205 0 0.028-0.105 0.128-0.128 0.119-0.060-0.021-0.723-0.35-0.723-0.358-0.002-0.009 0.23-0.147 0.25-0.149 0.004 0 0.141 0.083 0.305 0.183zM15.155 15.586c0.047 0.017 0.043 0.045-0.009 0.073-0.030 0.017-0.055 0.015-0.090-0.002-0.045-0.023-0.045-0.026-0.006-0.053 0.045-0.034 0.058-0.036 0.105-0.017zM15.196 15.87c0.164 0.107 0.207 0.145 0.207 0.183 0 0.094-0.021 0.117-0.107 0.117-0.064 0-0.124-0.028-0.279-0.132-0.111-0.073-0.239-0.154-0.284-0.179l-0.083-0.047 0.126-0.064c0.109-0.055 0.132-0.062 0.169-0.038 0.023 0.015 0.137 0.087 0.252 0.16zM15.36 15.697c0 0.021-0.096 0.068-0.134 0.068-0.034-0.002 0.073-0.083 0.109-0.085 0.013 0 0.026 0.009 0.026 0.017zM14.539 15.915c0.006 0.011 0.034 0.021 0.060 0.021 0.036 0.002 0.030 0.011-0.036 0.045-0.066 0.036-0.094 0.041-0.132 0.021-0.066-0.030-0.064-0.053 0.009-0.081 0.077-0.030 0.085-0.032 0.1-0.006zM14.784 16.017c0 0.023-0.19 0.119-0.207 0.102s-0.013-0.019 0.090-0.073c0.094-0.049 0.117-0.055 0.117-0.030zM14.496 16.186c0.126 0.090 0.233 0.177 0.239 0.192s-0.004 0.051-0.023 0.079c-0.062 0.094-0.107 0.090-0.307-0.038-0.102-0.064-0.247-0.145-0.322-0.181l-0.134-0.064 0.145-0.075c0.081-0.041 0.154-0.075 0.162-0.077 0.009 0 0.117 0.075 0.241 0.164zM19.294 16.077c0.047 0.019 0.021 0.051-0.041 0.051-0.038 0-0.049-0.009-0.041-0.032 0.015-0.034 0.030-0.038 0.081-0.019zM13.845 16.256c0 0.011-0.026 0.021-0.058 0.019-0.053 0-0.055-0.002-0.017-0.019 0.058-0.026 0.075-0.026 0.075 0zM14.095 16.412c0.021 0.019 0.021 0.058 0.006 0.151-0.045 0.279 0.107 0.915 0.384 1.609 0.053 0.13 0.073 0.203 0.055 0.207-0.013 0.004-0.282 0.028-0.599 0.053-0.316 0.023-0.602 0.047-0.631 0.053-0.053 0.009-0.060-0.002-0.164-0.288-0.156-0.418-0.279-0.672-0.41-0.841-0.132-0.173-0.175-0.324-0.115-0.412 0.043-0.066 0.201-0.181 0.365-0.265l0.132-0.068 0.124 0.113c0.299 0.273 0.444 0.32 0.574 0.181 0.066-0.073 0.113-0.198 0.085-0.241-0.006-0.011-0.081-0.066-0.164-0.122-0.143-0.096-0.151-0.105-0.105-0.122 0.158-0.058 0.41-0.064 0.463-0.011zM13.632 16.602c0.094 0.062 0.171 0.117 0.171 0.124s-0.019 0.043-0.043 0.079c-0.073 0.119-0.175 0.085-0.435-0.145l-0.102-0.092 0.092-0.036c0.051-0.021 0.107-0.038 0.122-0.038 0.015-0.002 0.102 0.049 0.196 0.109zM19.989 16.531c0.068 0.128-0.015 0.433-0.201 0.753l-0.096 0.162-0.092-0.021c-0.051-0.013-0.224-0.023-0.386-0.026-0.282-0.002-0.294-0.004-0.284-0.045 0.006-0.023 0.036-0.158 0.068-0.299 0.030-0.141 0.066-0.265 0.081-0.273 0.019-0.017 0.826-0.284 0.87-0.29 0.009-0.002 0.026 0.017 0.038 0.038zM12.531 16.89c-0.047 0.070-0.051 0.094-0.038 0.198 0.015 0.132 0.032 0.171 0.115 0.277 0.053 0.068 0.058 0.081 0.030 0.117-0.017 0.021-0.030 0.053-0.030 0.068 0 0.047 0.066 0.060 0.096 0.019 0.023-0.032 0.030-0.030 0.058 0.013 0.079 0.119 0.358 0.815 0.358 0.887 0 0.028-0.126 0.030-1.028 0.019-0.981-0.011-1.346-0.028-1.777-0.081-0.273-0.034-0.606-0.102-0.698-0.143l-0.077-0.036 0.047-0.164c0.028-0.092 0.077-0.211 0.111-0.267l0.064-0.102 0.147 0.006c0.16 0.006 0.218-0.013 0.196-0.068-0.011-0.026-0.045-0.034-0.147-0.034-0.164 0-0.143-0.043 0.030-0.058 0.094-0.009 2.018-0.55 2.438-0.687 0.070-0.021 0.134-0.041 0.143-0.043s-0.009 0.034-0.038 0.077zM18.355 17.312c-0.053 0.224-0.111 0.427-0.128 0.452-0.081 0.128-1.075 0.322-2.462 0.484-0.734 0.087-1.075 0.119-1.090 0.102-0.019-0.021-0.19-0.465-0.19-0.493 0-0.026-0.055-0.011 0.811-0.215 0.405-0.094 1.278-0.301 1.941-0.457s1.207-0.282 1.21-0.282c0.002 0.002-0.038 0.186-0.092 0.407zM19.701 17.557c0.107 0.023 0.25 0.049 0.32 0.053 1.097 0.090 1.357 0.105 1.841 0.105l0.538 0.002 0.032 0.068c0.036 0.073 0.049 0.137 0.062 0.284 0.006 0.053 0.049 0.207 0.096 0.343 0.098 0.275 0.151 0.521 0.151 0.685 0 0.092-0.009 0.115-0.064 0.166-0.192 0.179-0.966 0.373-1.792 0.448-0.134 0.013-0.439 0.028-0.676 0.036l-0.433 0.013v-0.045c0-0.036-0.013-0.047-0.053-0.047-0.038 0-0.053 0.011-0.053 0.043 0 0.036-0.015 0.043-0.085 0.043-0.047 0-0.085-0.011-0.085-0.021 0-0.013-0.028-0.021-0.064-0.021-0.043 0-0.064 0.011-0.064 0.032 0 0.023-0.026 0.032-0.096 0.032s-0.096-0.009-0.096-0.032c0-0.017-0.015-0.032-0.032-0.032-0.019 0-0.038 0.015-0.045 0.032-0.015 0.036-0.201 0.047-0.201 0.011 0-0.013-0.023-0.021-0.053-0.021s-0.053 0.009-0.053 0.021c0 0.011-0.043 0.021-0.096 0.021-0.070 0-0.096-0.009-0.096-0.032 0-0.019-0.019-0.032-0.053-0.032-0.038 0-0.053 0.011-0.053 0.043 0 0.036-0.015 0.043-0.096 0.043-0.053 0-0.096-0.011-0.096-0.021 0-0.013-0.023-0.021-0.053-0.021-0.034 0-0.053 0.013-0.053 0.032 0 0.023-0.026 0.032-0.096 0.032-0.073 0-0.096-0.009-0.096-0.034 0-0.021-0.015-0.030-0.036-0.026s-0.036 0.021-0.034 0.034c0.009 0.032-0.198 0.036-0.218 0.004-0.021-0.032-0.075-0.026-0.075 0.011 0 0.023-0.026 0.032-0.096 0.032s-0.096-0.009-0.096-0.032c0-0.019-0.019-0.032-0.053-0.032s-0.053 0.013-0.053 0.032c0 0.023-0.026 0.032-0.096 0.032-0.053 0-0.096-0.011-0.096-0.021 0-0.013-0.019-0.021-0.041-0.021-0.023 0-0.049 0.009-0.055 0.021-0.019 0.032-0.196 0.026-0.209-0.006-0.006-0.021-0.019-0.021-0.055 0-0.053 0.032-0.215 0.036-0.215 0.006 0-0.013-0.023-0.021-0.053-0.021-0.034 0-0.053 0.013-0.053 0.032 0 0.023-0.026 0.032-0.096 0.032-0.053 0-0.096-0.011-0.096-0.021 0-0.013-0.019-0.021-0.041-0.021-0.023 0-0.049 0.009-0.055 0.021-0.006 0.011-0.051 0.021-0.096 0.021s-0.090-0.011-0.096-0.021c-0.017-0.028-0.096-0.028-0.096-0.002 0 0.011-0.041 0.026-0.090 0.034-0.068 0.013-0.094 0.009-0.113-0.019-0.032-0.043-0.066-0.045-0.083-0.002-0.013 0.036-0.183 0.047-0.183 0.011 0-0.013-0.028-0.021-0.064-0.021-0.034 0-0.064 0.009-0.064 0.021 0 0.011-0.038 0.021-0.085 0.021s-0.085-0.011-0.085-0.021c0-0.034-0.085-0.026-0.098 0.011-0.015 0.036-0.201 0.047-0.201 0.011 0-0.013-0.023-0.021-0.053-0.021-0.034 0-0.053 0.013-0.053 0.032 0 0.023-0.026 0.032-0.107 0.032s-0.107-0.009-0.107-0.032c0-0.017-0.019-0.032-0.043-0.032s-0.043 0.015-0.043 0.032c0 0.023-0.023 0.032-0.083 0.032-0.053 0-0.087-0.011-0.096-0.032-0.017-0.045-0.098-0.041-0.098 0.004 0 0.032-0.055 0.034-0.698 0.021-1.839-0.038-3.132-0.23-3.765-0.563-0.294-0.154-0.38-0.309-0.335-0.604 0.036-0.233 0.058-0.309 0.1-0.365l0.041-0.047 0.201 0.055c0.529 0.147 1.291 0.207 2.675 0.207 0.678 0 0.915-0.009 1.451-0.053 2.148-0.177 3.716-0.399 4.331-0.61 0.098-0.034 0.141-0.062 0.177-0.117 0.092-0.141 0.316-0.26 0.565-0.307 0.164-0.030 0.595-0.006 0.815 0.043z"></path>
<path d="M16.111 13.775c-0.098 0.292-0.183 0.542-0.19 0.555-0.004 0.015 0.004 0.028 0.021 0.028 0.021 0 0.083-0.158 0.207-0.529 0.198-0.602 0.188-0.561 0.16-0.572-0.013-0.004-0.102 0.228-0.198 0.518z"></path>
<path d="M16.194 13.796c-0.096 0.292-0.181 0.542-0.188 0.555-0.004 0.015 0.002 0.028 0.019 0.028 0.019 0 0.090-0.186 0.205-0.529 0.096-0.29 0.175-0.54 0.175-0.555 0-0.094-0.055 0.041-0.211 0.501z"></path>
<path d="M16.277 13.796c-0.096 0.292-0.179 0.542-0.186 0.555-0.004 0.015 0.002 0.028 0.019 0.028 0.019 0 0.090-0.186 0.205-0.529 0.177-0.535 0.19-0.58 0.156-0.58-0.011 0-0.098 0.237-0.194 0.527z"></path>
<path d="M16.361 13.796c-0.096 0.292-0.179 0.542-0.186 0.555-0.004 0.015 0.004 0.028 0.019 0.028 0.019-0.002 0.092-0.19 0.207-0.54 0.096-0.297 0.175-0.544 0.175-0.555 0-0.009-0.009-0.015-0.019-0.015s-0.098 0.237-0.196 0.527z"></path>
<path d="M16.439 13.818c-0.169 0.501-0.194 0.604-0.143 0.548 0.017-0.019 0.365-1.047 0.365-1.082 0-0.009-0.009-0.015-0.019-0.015s-0.102 0.247-0.203 0.548z"></path>
<path d="M16.525 13.818c-0.169 0.501-0.194 0.604-0.143 0.548 0.017-0.019 0.365-1.047 0.365-1.082 0-0.009-0.009-0.015-0.019-0.015s-0.102 0.247-0.203 0.548z"></path>
<path d="M16.783 13.306c-0.004 0.011-0.087 0.256-0.186 0.546-0.158 0.476-0.188 0.597-0.13 0.535 0.017-0.017 0.365-1.052 0.365-1.084 0-0.017-0.038-0.017-0.049 0.002z"></path>
<path d="M16.868 13.306c-0.004 0.011-0.087 0.256-0.186 0.546-0.158 0.476-0.188 0.597-0.13 0.535 0.017-0.019 0.365-1.047 0.365-1.082 0-0.019-0.038-0.019-0.049 0z"></path>
<path d="M16.971 13.333c-0.023 0.036-0.352 1.030-0.352 1.060 0 0.015 0.009 0.028 0.019 0.028 0.028 0 0.386-1.086 0.365-1.099-0.011-0.006-0.026 0-0.032 0.011z"></path>
<path d="M16.9 13.862c-0.179 0.538-0.19 0.58-0.156 0.58 0.015 0 0.363-0.998 0.373-1.075 0-0.011-0.009-0.021-0.019-0.026-0.013-0.004-0.1 0.228-0.198 0.521z"></path>
<path d="M17.007 13.903c-0.098 0.292-0.183 0.542-0.19 0.555-0.004 0.015 0.004 0.028 0.021 0.028 0.021 0 0.083-0.16 0.203-0.518 0.196-0.589 0.192-0.572 0.164-0.582-0.013-0.004-0.102 0.228-0.198 0.518z"></path>
<path d="M17.107 13.946c-0.096 0.292-0.179 0.542-0.186 0.555-0.004 0.015 0.004 0.028 0.021 0.028 0.019 0 0.087-0.179 0.205-0.529 0.179-0.538 0.19-0.58 0.156-0.58-0.011 0-0.098 0.237-0.196 0.527z"></path>
<path d="M17.214 13.967c-0.096 0.292-0.179 0.542-0.186 0.555-0.004 0.015 0.004 0.028 0.021 0.028 0.019 0 0.087-0.179 0.205-0.529 0.179-0.538 0.19-0.58 0.156-0.58-0.011 0-0.098 0.237-0.196 0.527z"></path>
<path d="M17.493 13.466c0 0.004-0.081 0.252-0.181 0.548-0.098 0.299-0.175 0.548-0.171 0.555 0.006 0.004 0.019 0 0.030-0.011 0.021-0.021 0.365-1.028 0.365-1.071 0-0.019-0.043-0.041-0.043-0.021z"></path>
<path d="M17.594 13.498c-0.004 0.011-0.087 0.256-0.186 0.546-0.158 0.476-0.188 0.597-0.13 0.535 0.017-0.019 0.365-1.047 0.365-1.082 0-0.019-0.038-0.019-0.049 0z"></path>
<path d="M17.7 13.519c-0.004 0.011-0.087 0.256-0.186 0.546-0.158 0.476-0.188 0.597-0.13 0.535 0.017-0.019 0.365-1.047 0.365-1.082 0-0.019-0.038-0.019-0.049 0z"></path>
<path d="M17.794 13.572c-0.115 0.314-0.348 1.043-0.337 1.054 0.009 0.009 0.019 0.011 0.026 0.004 0.011-0.011 0.373-1.077 0.373-1.097 0-0.030-0.047 0-0.062 0.038z"></path>
<path d="M17.732 14.076c-0.179 0.538-0.19 0.58-0.156 0.58 0.011 0 0.098-0.237 0.196-0.529 0.096-0.29 0.179-0.54 0.186-0.555 0.004-0.013-0.004-0.026-0.021-0.026-0.019 0-0.087 0.179-0.205 0.529z"></path>
<path d="M17.839 14.097c-0.179 0.538-0.19 0.58-0.156 0.58 0.011 0 0.098-0.237 0.196-0.529 0.096-0.29 0.179-0.54 0.186-0.555 0.004-0.013-0.004-0.026-0.021-0.026-0.019 0-0.087 0.179-0.205 0.529z"></path>
<path d="M17.935 14.133c-0.105 0.311-0.173 0.55-0.16 0.557 0.011 0.006 0.023 0.009 0.026 0.006 0.011-0.013 0.354-1.052 0.356-1.075 0-0.011-0.009-0.023-0.019-0.028-0.013-0.004-0.102 0.239-0.203 0.54z"></path>
<path d="M18.039 14.159c-0.1 0.301-0.177 0.553-0.173 0.559 0.006 0.004 0.021 0 0.032-0.011 0.023-0.023 0.363-1.024 0.363-1.069 0-0.105-0.062 0.043-0.222 0.521z"></path>
<path d="M18.315 13.679c-0.162 0.471-0.352 1.071-0.341 1.079 0.006 0.006 0.021 0.002 0.032-0.009 0.021-0.021 0.363-1.037 0.363-1.077 0-0.030-0.043-0.023-0.053 0.006z"></path>
<path d="M18.426 13.69c-0.004 0.011-0.087 0.256-0.186 0.546-0.158 0.476-0.188 0.597-0.13 0.535 0.017-0.019 0.365-1.047 0.365-1.082 0-0.019-0.038-0.019-0.049 0z"></path>
<path d="M18.532 13.732c-0.004 0.011-0.087 0.256-0.186 0.546-0.158 0.476-0.188 0.597-0.13 0.535 0.017-0.019 0.365-1.047 0.365-1.082 0-0.019-0.038-0.019-0.049 0z"></path>
<path d="M18.618 13.828c-0.075 0.181-0.341 1.020-0.329 1.033 0.009 0.009 0.021 0.011 0.028 0.004 0.009-0.011 0.371-1.079 0.371-1.099 0-0.004-0.009-0.006-0.021-0.006-0.011 0-0.034 0.032-0.049 0.068z"></path>
<path d="M18.564 14.332c-0.179 0.538-0.19 0.58-0.156 0.58 0.011 0 0.098-0.237 0.196-0.529 0.096-0.29 0.179-0.54 0.186-0.555 0.004-0.013-0.004-0.026-0.021-0.026-0.019 0-0.087 0.179-0.205 0.529z"></path>
<path d="M18.848 13.847c-0.051 0.137-0.352 1.058-0.352 1.079 0 0.015 0.009 0.028 0.019 0.028 0.032 0 0.388-1.094 0.365-1.118-0.013-0.013-0.023-0.009-0.032 0.011z"></path>
<path d="M18.767 14.411c-0.1 0.299-0.175 0.548-0.164 0.555 0.028 0.017 0.036 0 0.213-0.529 0.092-0.273 0.173-0.512 0.181-0.533 0.011-0.026 0.004-0.036-0.017-0.036-0.023 0-0.083 0.151-0.213 0.544z"></path>
<path d="M19.061 13.909c-0.041 0.064-0.367 1.090-0.352 1.099 0.011 0.006 0.026 0 0.032-0.011 0.041-0.064 0.367-1.090 0.352-1.099-0.011-0.006-0.026 0-0.032 0.011z"></path>
<path d="M19.14 13.978c-0.006 0.026-0.085 0.267-0.175 0.538-0.149 0.448-0.179 0.563-0.126 0.51 0.019-0.019 0.361-1.033 0.361-1.071 0-0.043-0.047-0.023-0.060 0.023z"></path>
<path d="M19.085 14.5c-0.117 0.35-0.175 0.557-0.162 0.57s0.023 0.009 0.032-0.011c0.051-0.137 0.352-1.058 0.352-1.079 0-0.105-0.062 0.043-0.222 0.521z"></path>
<path d="M19.191 14.543c-0.117 0.35-0.175 0.557-0.162 0.57s0.023 0.009 0.032-0.011c0.051-0.137 0.352-1.058 0.352-1.079 0-0.105-0.062 0.043-0.222 0.521z"></path>
<path d="M19.471 14.052c-0.004 0.011-0.087 0.256-0.186 0.546-0.158 0.476-0.188 0.597-0.13 0.535 0.017-0.019 0.365-1.047 0.365-1.082 0-0.019-0.038-0.019-0.049 0z"></path>
<path d="M19.578 14.095c-0.004 0.009-0.087 0.256-0.186 0.546-0.158 0.476-0.188 0.597-0.13 0.535 0.036-0.041 0.365-1.062 0.346-1.082-0.011-0.011-0.023-0.011-0.030 0z"></path>
<path d="M11.52 17.547c-0.038 0.047-0.006 0.075 0.083 0.075 0.045 0 0.094 0.013 0.109 0.030 0.030 0.038 0.085 0.021 0.085-0.030 0-0.019-0.017-0.051-0.038-0.070-0.049-0.045-0.203-0.047-0.239-0.004z"></path>
<path d="M11.093 17.568c-0.045 0.055 0.002 0.077 0.151 0.070 0.119-0.006 0.137-0.011 0.137-0.049 0-0.036-0.017-0.043-0.13-0.049-0.098-0.004-0.137 0.002-0.158 0.028z"></path>
<path d="M10.654 17.589c-0.023 0.058 0.021 0.077 0.164 0.070 0.119-0.006 0.137-0.011 0.137-0.049s-0.017-0.043-0.145-0.049c-0.115-0.004-0.145 0-0.156 0.028z"></path>
<path d="M10.227 17.611c-0.021 0.055 0.013 0.075 0.137 0.075 0.137 0 0.188-0.021 0.169-0.073-0.019-0.047-0.288-0.049-0.305-0.002z"></path>
<path d="M12.39 17.724c-0.066 0.036-0.102 0.073-0.102 0.098 0 0.034 0.011 0.038 0.077 0.028 0.087-0.015 0.228-0.113 0.215-0.149-0.013-0.043-0.085-0.034-0.19 0.023z"></path>
<path d="M11.898 17.7c-0.043 0.041-0.009 0.090 0.094 0.132 0.122 0.053 0.179 0.051 0.179-0.004 0-0.028-0.038-0.053-0.128-0.090-0.149-0.062-0.128-0.055-0.145-0.038z"></path>
<path d="M17.988 17.242c-0.060 0.060-0.006 0.154 0.083 0.141 0.064-0.009 0.1-0.070 0.070-0.119-0.030-0.045-0.117-0.058-0.154-0.021z"></path>
<path d="M17.504 17.374c-0.045 0.066-0.011 0.141 0.060 0.141 0.098 0 0.141-0.126 0.060-0.171-0.062-0.032-0.083-0.028-0.119 0.030z"></path>
<path d="M17.015 17.442c-0.066 0.066-0.028 0.158 0.066 0.158 0.045 0 0.092-0.053 0.092-0.105 0-0.030-0.062-0.087-0.096-0.087-0.015 0-0.045 0.015-0.062 0.034z"></path>
<path d="M16.525 17.562c-0.028 0.041-0.030 0.053-0.004 0.092 0.055 0.083 0.162 0.055 0.162-0.041 0-0.098-0.102-0.132-0.158-0.051z"></path>
<path d="M16 17.664c-0.032 0.062-0.006 0.126 0.055 0.141 0.064 0.017 0.115-0.023 0.115-0.085 0-0.098-0.126-0.137-0.171-0.055z"></path>
<path d="M15.565 17.751c-0.036 0.053-0.026 0.096 0.032 0.128 0.055 0.030 0.126-0.011 0.126-0.073 0-0.1-0.102-0.134-0.158-0.055z"></path>
<path d="M15.066 17.839c-0.062 0.062 0.015 0.183 0.1 0.156 0.055-0.017 0.081-0.107 0.045-0.149-0.032-0.038-0.109-0.043-0.145-0.006z"></path>
<path d="M25.76 19.827c-0.228 0.055-0.427 0.198-0.576 0.405-0.205 0.292-0.288 0.548-0.288 0.896 0.002 0.604 0.301 1.045 0.8 1.175 0.068 0.017 0.147 0.047 0.175 0.064 0.045 0.030 0.060 0.030 0.151 0.002 0.055-0.017 0.183-0.043 0.284-0.055 0.102-0.011 0.356-0.064 0.565-0.115 0.691-0.171 0.868-0.177 1.137-0.043 0.275 0.139 0.446 0.388 0.467 0.687 0.013 0.188-0.026 0.305-0.134 0.41-0.186 0.181-0.578 0.060-0.713-0.222-0.049-0.098-0.058-0.252-0.023-0.346l0.021-0.055-0.128 0.009c-0.224 0.017-0.331 0.141-0.314 0.369 0.017 0.25 0.194 0.484 0.459 0.612 0.128 0.062 0.162 0.068 0.335 0.070 0.169 0 0.207-0.009 0.314-0.060 0.629-0.309 0.57-1.57-0.092-1.905-0.060-0.030-0.186-0.075-0.282-0.1-0.224-0.058-0.704-0.064-1.039-0.011-0.386 0.062-0.397 0.062-0.48 0.004-0.075-0.049-0.079-0.049-0.145-0.017-0.107 0.058-0.265 0.049-0.405-0.021-0.141-0.068-0.297-0.215-0.361-0.341-0.132-0.254 0.026-0.557 0.326-0.631 0.279-0.070 0.666 0.175 0.755 0.476l0.026 0.087 0.064-0.090c0.164-0.226 0.205-0.638 0.087-0.87-0.162-0.314-0.593-0.482-0.988-0.384z"></path>
<path d="M6.743 20.981c-0.145 0.032-0.316 0.085-0.358 0.113-0.021 0.013-0.017 0.036 0.015 0.1 0.023 0.047 0.043 0.107 0.043 0.132 0 0.203-0.279 0.465-0.521 0.491-0.102 0.011-0.119 0.019-0.143 0.073-0.043 0.105-0.147 0.175-0.576 0.388-0.48 0.237-0.966 0.433-1.557 0.627l-0.42 0.139 0.122 0.122c0.081 0.077 0.154 0.177 0.205 0.279 0.211 0.42 0.501 0.747 0.781 0.881 0.282 0.134 0.578 0.156 0.855 0.060 0.393-0.134 0.578-0.493 0.388-0.742-0.066-0.085-0.164-0.134-0.277-0.134-0.077 0-0.077 0-0.064 0.073 0.068 0.363-0.621 0.555-1.103 0.307-0.164-0.083-0.356-0.303-0.356-0.407 0-0.066 0.439-0.126 1.195-0.166 0.491-0.026 1.131-0.004 1.63 0.053l0.213 0.023 0.023 0.096c0.049 0.192 0.175 0.354 0.324 0.416 0.105 0.045 0.371 0.038 0.369-0.009 0-0.006-0.049-0.045-0.107-0.085-0.096-0.064-0.277-0.292-0.277-0.346 0-0.011 0.026-0.015 0.060-0.006 0.738 0.169 1.092 0.329 1.188 0.54 0.021 0.049 0.047 0.087 0.058 0.087s0.073-0.034 0.137-0.077c0.329-0.22 0.435-0.529 0.252-0.734-0.094-0.102-0.267-0.179-0.535-0.233-0.254-0.053-0.911-0.096-1.126-0.077l-0.151 0.013-0.038-0.124c-0.066-0.213-0.154-0.337-0.318-0.457l-0.079-0.058 0.122-0.068c0.26-0.147 0.495-0.363 0.585-0.538 0.107-0.207 0.13-0.418 0.064-0.561-0.092-0.203-0.288-0.262-0.619-0.192zM6.594 22.468c0.090 0.062 0.186 0.247 0.205 0.397l0.013 0.111h-0.446c-0.48 0-0.998 0.028-1.342 0.073-0.117 0.015-0.215 0.026-0.22 0.023-0.002-0.002 0.292-0.119 0.655-0.262 0.555-0.22 0.678-0.26 0.774-0.26 0.105 0 0.122-0.006 0.162-0.064 0.058-0.077 0.102-0.081 0.198-0.017z"></path>
<path d="M21.813 24.563c-0.237 0.102-0.452 0.649-0.567 1.446l-0.047 0.335-0.141 0.023c-0.194 0.034-0.303 0.087-0.435 0.211l-0.115 0.109-0.028-0.092c-0.066-0.222-0.267-0.544-0.412-0.663-0.188-0.154-0.439-0.23-0.606-0.186-0.105 0.028-0.207 0.137-0.239 0.252-0.030 0.105-0.030 0.442 0 0.587 0.034 0.175 0.032 0.173 0.094 0.132 0.038-0.026 0.083-0.032 0.162-0.026 0.092 0.009 0.122 0.026 0.205 0.105 0.139 0.137 0.224 0.314 0.218 0.459-0.004 0.109-0.002 0.117 0.083 0.194 0.068 0.064 0.102 0.122 0.162 0.284 0.207 0.565 0.397 1.321 0.514 2.048 0.017 0.111 0.038 0.235 0.045 0.273l0.011 0.070 0.083-0.075c0.102-0.092 0.205-0.145 0.444-0.23 0.64-0.224 1.013-0.589 1.092-1.067 0.083-0.484-0.16-0.913-0.514-0.917-0.177 0-0.309 0.109-0.333 0.275l-0.011 0.085 0.092 0.013c0.175 0.023 0.262 0.139 0.303 0.399 0.068 0.442-0.224 0.941-0.608 1.033-0.055 0.013-0.058 0.009-0.073-0.087-0.019-0.128 0.004-0.691 0.047-1.105 0.049-0.486 0.175-1.201 0.275-1.555 0.015-0.060 0.041-0.149 0.051-0.196l0.023-0.087 0.124-0.013c0.286-0.026 0.495-0.235 0.495-0.495 0-0.128-0.019-0.143-0.079-0.068-0.068 0.085-0.209 0.186-0.324 0.23l-0.113 0.041 0.015-0.047c0.034-0.113 0.173-0.427 0.273-0.625 0.134-0.262 0.318-0.463 0.457-0.499l0.090-0.026-0.041-0.092c-0.098-0.23-0.205-0.363-0.352-0.431-0.119-0.058-0.224-0.064-0.32-0.021zM21.163 26.588c0 0.015-0.023 0.19-0.051 0.388-0.075 0.521-0.102 0.802-0.117 1.227l-0.013 0.373-0.036-0.149c-0.058-0.23-0.23-0.966-0.262-1.111-0.017-0.087-0.021-0.166-0.009-0.245 0.017-0.109 0.015-0.117-0.047-0.181l-0.066-0.068 0.038-0.068c0.043-0.070 0.141-0.141 0.239-0.171s0.324-0.026 0.324 0.006z"></path>
<path d="M13.557 26.123c-0.284 0.079-0.659 0.314-1.173 0.736-0.154 0.128-0.329 0.252-0.39 0.277-0.094 0.041-0.117 0.064-0.154 0.141-0.021 0.051-0.119 0.183-0.218 0.29-0.459 0.508-0.828 1.065-0.947 1.425-0.058 0.177-0.055 0.452 0.009 0.572 0.079 0.149 0.373 0.331 0.587 0.358l0.1 0.015-0.045-0.105c-0.156-0.35-0.004-0.873 0.459-1.587 0.292-0.448 0.555-0.757 0.698-0.823 0.070-0.030 0.083-0.047 0.083-0.102s0.030-0.094 0.179-0.239c0.305-0.29 0.706-0.563 0.83-0.563 0.075 0 0.137 0.064 0.156 0.16 0.017 0.098-0.053 0.412-0.147 0.64-0.058 0.137-0.087 0.183-0.158 0.235-0.085 0.060-0.090 0.070-0.090 0.175-0.002 0.098-0.028 0.162-0.183 0.469-0.098 0.198-0.288 0.535-0.418 0.753-0.612 1.011-0.723 1.197-0.723 1.216 0 0.013 0.047 0.021 0.107 0.021 0.062 0 0.162 0.023 0.25 0.055 0.482 0.188 0.629 0.228 0.87 0.239 0.284 0.013 0.427-0.015 0.634-0.117 0.186-0.094 0.386-0.29 0.478-0.469 0.085-0.171 0.098-0.407 0.030-0.55-0.053-0.111-0.124-0.166-0.252-0.201-0.079-0.021-0.102-0.019-0.181 0.017-0.049 0.023-0.109 0.058-0.132 0.077-0.041 0.032-0.041 0.032 0.006 0.066 0.177 0.124 0.134 0.378-0.113 0.644-0.198 0.215-0.531 0.348-0.785 0.316-0.128-0.017-0.164-0.032-0.164-0.064 0-0.049 0.111-0.301 0.309-0.698 0.226-0.454 0.286-0.563 0.634-1.124 0.196-0.316 0.275-0.425 0.339-0.467 0.070-0.047 0.083-0.066 0.083-0.132 0-0.051 0.026-0.119 0.077-0.205 0.175-0.286 0.265-0.576 0.265-0.851 0-0.326-0.1-0.493-0.358-0.589-0.132-0.051-0.384-0.055-0.548-0.011z"></path>
</svg>
